<svg width="34" height="31" fill="none" xmlns="http://www.w3.org/2000/svg"><path fill-rule="evenodd" clip-rule="evenodd" d="M4.837 2.363H.946v-2h5.323l.23.678-.946.322.946-.322.001.003.003.009.013.036.048.141.184.54.305.896h25.99v11.778c0 1.875-1.708 3.156-3.497 3.156H12.134l1.174 3.448c.067.01.134.02.2.033 2.158-.013 5.884-.034 9.108-.051l4.3-.024L28.238 21l.361-.002h.132a4.887 4.887 0 11-3.958 2.021l-2.146.012-6.03.033a4.887 4.887 0 11-5.354-1.873l-3.63-10.67-2.094-6.152-.665-1.953-.017-.052zM11.454 15.6h18.092c.969 0 1.496-.65 1.496-1.156V4.666H7.733l1.773 5.21 1.948 5.724zM9.72 25.885a2.887 2.887 0 115.774 0 2.887 2.887 0 01-5.774 0zm19.01-2.887a2.887 2.887 0 100 5.774 2.887 2.887 0 000-5.774z" fill="#fff"/></svg>