<svg width="55" height="65" fill="none" xmlns="http://www.w3.org/2000/svg"><path d="M41.161 15.442c-.98 0-1.774-.804-1.774-1.796V0H10.645c-1.96 0-3.548 1.608-3.548 3.591V61.41c0 1.983 1.588 3.591 3.548 3.591h40.806C53.412 65 55 63.392 55 61.409V28.695L41.904 15.442h-.743z" fill="#E1E5E8"/><path d="M55 15.639l-.194-.197H41.904L55 28.696V15.639z" fill="#CAD1D9"/><path d="M45.903 6.432L39.547 0h-.16v13.646c0 .992.794 1.796 1.774 1.796h13.644l-8.902-9.01z" fill="#B0B7BD"/><path d="M48.258 54.945c0 .991-.794 1.795-1.774 1.795H8.87c-.98 0-1.774-.804-1.774-1.795v-3.591c0-.992.794-1.796 1.774-1.796h37.613c.98 0 1.774.804 1.774 1.796v3.59z" fill="#CAD1D9"/><path d="M48.258 53.508c0 .992-.794 1.796-1.774 1.796H1.774C.794 55.304 0 54.5 0 53.508v-20.47c0-.99.794-1.795 1.774-1.795h44.71c.98 0 1.774.804 1.774 1.796v20.47z" fill="#04457A"/><path d="M8.98 48.163a.481.481 0 01-.498-.504V38.57a.481.481 0 01.498-.504h2.3a5.34 5.34 0 012.011.368 4.572 4.572 0 011.578 1.048c.443.452.786.984 1.028 1.596.243.612.364 1.289.364 2.03a5.51 5.51 0 01-.364 2.036 4.75 4.75 0 01-1.028 1.603 4.566 4.566 0 01-1.578 1.047 5.323 5.323 0 01-2.011.369h-2.3zm.498-.905h1.802c.783 0 1.475-.179 2.075-.536.6-.358 1.071-.85 1.412-1.474.34-.625.51-1.338.51-2.14 0-.801-.17-1.514-.51-2.14a3.75 3.75 0 00-1.412-1.467c-.6-.353-1.292-.53-2.075-.53H9.478v8.287z" fill="#fff"/><path d="M11.28 48.522h-2.3a.834.834 0 01-.609-.248.854.854 0 01-.244-.615V38.57c0-.24.085-.454.245-.616a.836.836 0 01.608-.247h2.3c.774 0 1.495.132 2.143.394a4.947 4.947 0 011.698 1.128 5.153 5.153 0 011.106 1.716c.259.651.39 1.38.39 2.163 0 .784-.131 1.514-.39 2.17A5.136 5.136 0 0115.122 47a4.943 4.943 0 01-1.699 1.128 5.71 5.71 0 01-2.143.394zm-2.3-10.097c-.064 0-.089.02-.107.037-.017.018-.036.043-.036.108v9.089c0 .065.019.09.036.107.019.019.043.038.107.038h2.3c.684 0 1.316-.116 1.88-.343a4.235 4.235 0 001.457-.967c.407-.416.727-.915.95-1.483a5.18 5.18 0 00.34-1.903c0-.692-.114-1.33-.339-1.896a4.441 4.441 0 00-.95-1.478 4.243 4.243 0 00-1.458-.966 5.004 5.004 0 00-1.88-.343h-2.3zm2.3 9.192H9.124v-9.005h2.156c.843 0 1.601.194 2.254.579a4.122 4.122 0 011.544 1.604c.368.676.555 1.454.555 2.313 0 .859-.187 1.637-.555 2.313a4.167 4.167 0 01-1.542 1.61c-.653.389-1.412.586-2.256.586zM9.833 46.9h1.447c.715 0 1.353-.164 1.896-.487a3.462 3.462 0 001.28-1.338c.31-.568.467-1.23.467-1.966s-.157-1.398-.467-1.966a3.417 3.417 0 00-1.28-1.33c-.542-.32-1.18-.482-1.896-.482H9.833v7.57zm14.118 1.392c-.74 0-1.422-.129-2.044-.387a4.836 4.836 0 01-2.676-2.728 5.528 5.528 0 01-.377-2.069c0-.74.126-1.426.377-2.055a4.937 4.937 0 011.06-1.642 4.824 4.824 0 011.616-1.086 5.269 5.269 0 012.044-.388c.732 0 1.41.13 2.032.388a4.89 4.89 0 011.622 1.086c.46.465.815 1.012 1.067 1.642.25.629.376 1.314.376 2.055 0 .75-.125 1.44-.376 2.069a4.887 4.887 0 01-1.067 1.642c-.46.465-1 .827-1.622 1.086a5.244 5.244 0 01-2.032.387zm0-.956a4.18 4.18 0 001.636-.317 3.901 3.901 0 001.309-.892c.37-.383.658-.831.862-1.345.204-.512.307-1.07.307-1.674 0-.594-.103-1.148-.307-1.661a4.1 4.1 0 00-.862-1.345 3.9 3.9 0 00-1.31-.892 4.185 4.185 0 00-1.635-.316 4.21 4.21 0 00-1.648.316 3.902 3.902 0 00-1.309.892c-.37.384-.658.832-.862 1.345a4.446 4.446 0 00-.307 1.661c0 .604.102 1.162.307 1.675.204.513.492.96.862 1.344.37.383.807.68 1.31.892a4.212 4.212 0 001.647.317z" fill="#fff"/><path d="M23.951 48.652c-.783 0-1.516-.14-2.178-.415a5.195 5.195 0 01-2.87-2.926 5.915 5.915 0 01-.403-2.203c0-.784.135-1.521.402-2.19.268-.67.65-1.263 1.138-1.76a5.206 5.206 0 011.733-1.166 5.639 5.639 0 012.179-.414c.775 0 1.504.14 2.166.414a5.274 5.274 0 011.738 1.165c.492.497.877 1.09 1.145 1.761a5.89 5.89 0 01.403 2.19c0 .793-.136 1.534-.403 2.203a5.261 5.261 0 01-1.145 1.761 5.277 5.277 0 01-1.738 1.164 5.61 5.61 0 01-2.166.416zm0-10.356c-.69 0-1.333.121-1.909.36a4.498 4.498 0 00-1.498 1.007c-.42.43-.752.943-.984 1.524a5.161 5.161 0 00-.35 1.92c0 .701.118 1.352.35 1.935.232.581.563 1.094.984 1.523a4.5 4.5 0 001.498 1.007c.576.24 1.219.361 1.91.361.681 0 1.32-.121 1.896-.36a4.573 4.573 0 001.506-1.009 4.54 4.54 0 00.989-1.522 5.199 5.199 0 00.35-1.934 5.18 5.18 0 00-.35-1.921 4.548 4.548 0 00-.989-1.523 4.573 4.573 0 00-1.507-1.007 4.906 4.906 0 00-1.896-.361zm0 9.399a4.59 4.59 0 01-1.784-.344 4.266 4.266 0 01-1.426-.973 4.466 4.466 0 01-.938-1.461 4.86 4.86 0 01-.332-1.809c0-.638.111-1.242.332-1.795a4.472 4.472 0 01.938-1.462 4.271 4.271 0 011.427-.972 4.582 4.582 0 011.784-.344c.631 0 1.227.116 1.77.344.546.23 1.026.557 1.428.973.401.415.717.907.938 1.46.22.554.332 1.159.332 1.796a4.86 4.86 0 01-.332 1.809 4.471 4.471 0 01-.938 1.461 4.263 4.263 0 01-1.427.972 4.552 4.552 0 01-1.771.345zm0-8.443c-.546 0-1.054.098-1.512.29a3.557 3.557 0 00-1.191.811c-.336.348-.6.761-.787 1.228a4.108 4.108 0 00-.281 1.527c0 .554.094 1.072.28 1.54.187.467.452.88.788 1.228.335.347.736.62 1.191.811.457.192.966.29 1.512.29.538 0 1.043-.098 1.5-.29a3.562 3.562 0 001.191-.811c.337-.348.601-.761.787-1.228.187-.467.28-.986.28-1.54 0-.545-.093-1.06-.28-1.527a3.757 3.757 0 00-.787-1.227 3.566 3.566 0 00-1.192-.812 3.84 3.84 0 00-1.498-.29zm12.659 9.04a4.703 4.703 0 01-1.934-.4 4.938 4.938 0 01-1.584-1.119 5.261 5.261 0 01-1.45-3.665c0-.706.125-1.372.376-1.997a5.1 5.1 0 012.645-2.767 4.68 4.68 0 011.948-.407c.613 0 1.17.09 1.673.272.503.18.988.47 1.456.866.077.06.122.131.135.213a.399.399 0 01-.032.233.33.33 0 01-.154.161.23.23 0 01-.127.155.424.424 0 01-.237.04.484.484 0 01-.262-.117 3.376 3.376 0 00-1.085-.653c-.392-.142-.848-.213-1.367-.213a3.63 3.63 0 00-1.552.336 4.14 4.14 0 00-1.271.918 4.34 4.34 0 00-.863 1.344 4.217 4.217 0 00-.313 1.616 4.294 4.294 0 001.176 2.987c.366.388.79.691 1.27.911.482.22 1 .33 1.553.33.468 0 .911-.078 1.328-.233.418-.155.814-.38 1.188-.672a.4.4 0 01.326-.104.522.522 0 01.3.156.458.458 0 01.128.336.53.53 0 01-.032.188.608.608 0 01-.109.174c-.434.405-.92.692-1.456.86a5.586 5.586 0 01-1.673.252z" fill="#fff"/><path d="M36.61 48.652a5.075 5.075 0 01-2.077-.432 5.321 5.321 0 01-1.697-1.198 5.641 5.641 0 01-1.139-1.766 5.643 5.643 0 01-.41-2.148c0-.75.136-1.467.403-2.133a5.473 5.473 0 012.829-2.959 5.042 5.042 0 012.092-.438c.65 0 1.254.098 1.792.292.54.195 1.067.507 1.565.929.138.109.23.261.257.433a.756.756 0 01-.06.44.704.704 0 01-.193.25.6.6 0 01-.252.236.753.753 0 01-.428.075.833.833 0 01-.45-.193 3.064 3.064 0 00-.984-.595c-.351-.128-.771-.193-1.247-.193-.5 0-.971.102-1.404.303a3.8 3.8 0 00-1.162.84c-.334.354-.6.77-.791 1.235a3.87 3.87 0 00-.286 1.478 3.936 3.936 0 001.077 2.738 3.67 3.67 0 001.16.832 3.52 3.52 0 002.612.088 4.09 4.09 0 001.094-.62.746.746 0 01.594-.175.88.88 0 01.5.257.82.82 0 01.231.59.889.889 0 01-.055.316.968.968 0 01-.172.28l-.028.03a4.13 4.13 0 01-1.592.939 5.928 5.928 0 01-1.778.269zm0-10.356a4.35 4.35 0 00-1.803.376 4.747 4.747 0 00-2.46 2.574 4.966 4.966 0 00-.35 1.862c0 .665.12 1.295.356 1.873.237.58.571 1.1.994 1.543.421.442.916.792 1.471 1.039 1.021.454 2.27.476 3.361.134a3.43 3.43 0 001.304-.765.232.232 0 00.035-.055.17.17 0 00.008-.059c0-.057-.015-.073-.024-.082a.17.17 0 00-.102-.054c-.01-.006-.025.008-.046.025a4.821 4.821 0 01-1.292.733 4.12 4.12 0 01-1.45.255 4.058 4.058 0 01-1.699-.361 4.408 4.408 0 01-1.381-.991 4.664 4.664 0 01-1.274-3.235c0-.614.115-1.204.34-1.754a4.719 4.719 0 01.934-1.455 4.505 4.505 0 011.379-.996 3.996 3.996 0 011.7-.369c.558 0 1.058.08 1.486.235a3.75 3.75 0 011.2.72.139.139 0 00.061.03l.007-.001.02-.084.147-.074c-.453-.377-.906-.648-1.366-.814a4.59 4.59 0 00-1.555-.25z" fill="#fff"/></svg>