<svg width="56" height="65" fill="none" xmlns="http://www.w3.org/2000/svg"><path d="M41.976 15.442c-.98 0-1.774-.804-1.774-1.796V0H11.46C9.5 0 7.912 1.608 7.912 3.591V61.41C7.912 63.392 9.5 65 11.46 65h40.806c1.96 0 3.549-1.608 3.549-3.591V28.695L42.719 15.442h-.743z" fill="#E1E5E8"/><path d="M55.815 15.639l-.195-.197h-12.9l13.096 13.254V15.639z" fill="#CAD1D9"/><path d="M46.718 6.432L40.362 0h-.16v13.646c0 .992.794 1.796 1.774 1.796H55.62l-8.902-9.01z" fill="#B0B7BD"/><path d="M49.073 54.945c0 .991-.795 1.795-1.774 1.795H9.686c-.98 0-1.774-.804-1.774-1.795v-3.591c0-.992.794-1.796 1.774-1.796h37.613c.98 0 1.774.804 1.774 1.796v3.59z" fill="#CAD1D9"/><path d="M49.073 53.508c0 .992-.795 1.796-1.774 1.796H2.589c-.98 0-1.774-.804-1.774-1.796v-20.47c0-.99.794-1.795 1.774-1.795h44.71c.98 0 1.774.804 1.774 1.796v20.47z" fill="#F15642"/><path d="M12.446 48.163a.482.482 0 01-.498-.504V38.57a.482.482 0 01.498-.504H15c.63 0 1.188.14 1.673.42.486.28.864.666 1.137 1.157.273.492.409 1.06.409 1.707 0 .629-.136 1.187-.409 1.674a2.99 2.99 0 01-1.137 1.15c-.485.28-1.043.42-1.673.42h-2.057v3.065a.482.482 0 01-.498.504zm.498-4.538h2.057c.434 0 .822-.097 1.162-.29a2.07 2.07 0 00.799-.809 2.38 2.38 0 00.287-1.176c0-.457-.095-.858-.287-1.203a2.118 2.118 0 00-.799-.814 2.269 2.269 0 00-1.162-.297h-2.057v4.59z" fill="#fff"/><path d="M12.446 48.522a.834.834 0 01-.61-.248.854.854 0 01-.243-.615V38.57a.836.836 0 01.853-.863H15c.689 0 1.311.157 1.849.467.54.311.966.747 1.27 1.294.302.543.454 1.176.454 1.882 0 .689-.152 1.312-.454 1.851a3.36 3.36 0 01-1.27 1.286c-.538.31-1.16.467-1.85.467H13.3v2.705a.856.856 0 01-.245.616.835.835 0 01-.608.247zm0-10.097c-.065 0-.09.02-.107.037-.018.018-.037.043-.037.108v9.089c0 .065.02.09.037.107.018.019.042.038.107.038.064 0 .089-.02.107-.038.017-.017.036-.042.036-.108v-3.423h2.412c.564 0 1.068-.126 1.497-.373.433-.25.761-.582 1.004-1.016.24-.43.363-.933.363-1.497 0-.58-.123-1.096-.364-1.53a2.608 2.608 0 00-1.003-1.022c-.43-.247-.933-.373-1.498-.373h-2.554v.001zM15 43.985h-2.412v-5.309H15c.495 0 .946.116 1.339.346.395.23.709.55.93.95.222.397.334.86.334 1.378 0 .5-.113.955-.333 1.352a2.43 2.43 0 01-.934.945 2.663 2.663 0 01-1.336.337zm-1.702-.719H15c.376 0 .7-.08.989-.245.285-.162.502-.382.663-.67.16-.29.242-.626.242-1.001 0-.392-.082-.738-.242-1.026a1.75 1.75 0 00-.666-.68 1.908 1.908 0 00-.986-.25h-1.7v3.872zm8.243 4.897a.482.482 0 01-.498-.504V38.57a.482.482 0 01.498-.504h2.3c.732 0 1.403.123 2.012.368a4.574 4.574 0 011.577 1.048 4.77 4.77 0 011.029 1.596c.242.612.364 1.289.364 2.03a5.51 5.51 0 01-.364 2.036 4.75 4.75 0 01-1.029 1.603 4.57 4.57 0 01-1.577 1.047 5.324 5.324 0 01-2.012.369h-2.3zm.498-.905h1.802c.783 0 1.475-.179 2.075-.536.6-.358 1.071-.85 1.412-1.474.34-.625.511-1.338.511-2.14 0-.801-.17-1.514-.511-2.14a3.751 3.751 0 00-1.412-1.467c-.6-.353-1.292-.53-2.075-.53h-1.802v8.287z" fill="#fff"/><path d="M23.84 48.522h-2.299a.834.834 0 01-.609-.248.853.853 0 01-.244-.615V38.57c0-.24.085-.454.245-.616a.836.836 0 01.608-.247h2.3c.774 0 1.495.132 2.143.394a4.945 4.945 0 011.698 1.128 5.155 5.155 0 011.106 1.716c.259.651.39 1.38.39 2.163 0 .784-.131 1.514-.39 2.17A5.135 5.135 0 0127.683 47a4.944 4.944 0 01-1.699 1.128 5.71 5.71 0 01-2.143.394zm-2.299-10.097c-.064 0-.089.02-.107.037-.017.018-.036.043-.036.108v9.089c0 .065.019.09.036.107.019.019.043.038.107.038h2.3c.684 0 1.316-.116 1.88-.343a4.235 4.235 0 001.457-.967c.407-.416.727-.915.95-1.483.226-.57.34-1.211.34-1.903s-.114-1.33-.339-1.896a4.441 4.441 0 00-.95-1.478 4.245 4.245 0 00-1.458-.966 5.007 5.007 0 00-1.88-.343h-2.3zm2.3 9.192h-2.156v-9.005h2.156c.843 0 1.601.194 2.254.579a4.12 4.12 0 011.544 1.604c.368.676.555 1.454.555 2.313 0 .859-.187 1.637-.555 2.313-.37.68-.89 1.22-1.542 1.61-.654.389-1.412.586-2.256.586zm-1.447-.718h1.447c.715 0 1.353-.164 1.895-.487a3.462 3.462 0 001.281-1.338c.31-.568.467-1.23.467-1.966s-.157-1.398-.467-1.966a3.417 3.417 0 00-1.28-1.33c-.542-.32-1.18-.482-1.896-.482h-1.447v7.57zm9.469 1.264a.477.477 0 01-.351-.149.487.487 0 01-.147-.355V38.57a.481.481 0 01.498-.504h5.991a.472.472 0 01.498.491.482.482 0 01-.498.478h-5.493v3.569h3.998a.481.481 0 01.499.491.48.48 0 01-.498.491h-4v4.073a.499.499 0 01-.14.355.47.47 0 01-.357.149z" fill="#fff"/><path d="M31.863 48.522a.83.83 0 01-.603-.254.85.85 0 01-.25-.61V38.57a.836.836 0 01.853-.863h5.99a.85.85 0 01.604.235c.164.158.25.371.25.615a.836.836 0 01-.853.837h-5.138v2.85h3.644a.836.836 0 01.853.851.84.84 0 01-.853.85h-3.645v3.714c0 .23-.082.44-.239.604a.825.825 0 01-.613.259zm0-10.097c-.065 0-.09.02-.107.037-.018.018-.037.043-.037.108v9.089c0 .042.012.07.043.1a.126.126 0 00.1.045c.061 0 .084-.019.102-.038a.138.138 0 00.042-.107v-4.431h4.353c.065 0 .09-.02.107-.038.023-.023.037-.046.037-.095a.12.12 0 00-.037-.095c-.018-.018-.042-.037-.107-.037h-4.353v-4.287h5.847c.066 0 .09-.019.108-.037.03-.03.036-.053.036-.082 0-.066-.019-.085-.03-.096-.02-.019-.047-.036-.113-.036h-5.991z" fill="#fff"/></svg>