<svg width="55" height="65" fill="none" xmlns="http://www.w3.org/2000/svg"><path d="M41.161 15.442c-.98 0-1.774-.804-1.774-1.796V0H10.645c-1.96 0-3.548 1.608-3.548 3.591V61.41c0 1.983 1.588 3.591 3.548 3.591h40.807C53.412 65 55 63.392 55 61.409V28.695L41.904 15.442h-.743z" fill="#E1E5E8"/><path d="M55 15.639l-.194-.197H41.904L55 28.696V15.639z" fill="#CAD1D9"/><path d="M45.903 6.432L39.548 0h-.16v13.646c0 .992.794 1.796 1.773 1.796h13.644l-8.902-9.01z" fill="#B0B7BD"/><path d="M48.258 54.945c0 .991-.794 1.795-1.774 1.795H8.87c-.98 0-1.774-.804-1.774-1.795v-3.591c0-.992.794-1.796 1.774-1.796h37.613c.98 0 1.774.804 1.774 1.796v3.59z" fill="#CAD1D9"/><path d="M48.258 53.508c0 .992-.794 1.796-1.774 1.796H1.774C.794 55.304 0 54.5 0 53.508v-20.47c0-.99.794-1.795 1.774-1.795h44.71c.98 0 1.774.804 1.774 1.796v20.47z" fill="#51BEE9"/><path d="M13.496 48.292c-.57 0-1.082-.133-1.533-.4a2.965 2.965 0 01-1.073-1.086 3.017 3.017 0 01-.396-1.539.482.482 0 01.498-.504.482.482 0 01.498.504c0 .388.09.74.269 1.054a1.95 1.95 0 001.737 1.015c.375 0 .713-.093 1.015-.278a2.02 2.02 0 00.716-.743c.174-.31.262-.66.262-1.047V38.57a.482.482 0 01.498-.504.482.482 0 01.498.504v6.697c0 .569-.132 1.082-.396 1.538a2.965 2.965 0 01-1.073 1.086c-.451.267-.958.4-1.52.4z" fill="#fff"/><path d="M13.496 48.652a3.309 3.309 0 01-1.712-.45 3.326 3.326 0 01-1.2-1.215 3.386 3.386 0 01-.444-1.72c0-.241.084-.454.244-.616a.884.884 0 011.217 0c.16.162.244.375.244.616 0 .327.073.613.221.875.15.262.344.463.595.613.25.15.522.221.835.221.312 0 .584-.074.832-.225a1.65 1.65 0 00.59-.615c.146-.257.216-.542.216-.87v-6.695a.86.86 0 01.244-.616.883.883 0 011.218 0c.16.162.244.375.244.616v6.696a3.4 3.4 0 01-.444 1.72 3.288 3.288 0 01-2.9 1.665zm-2.504-3.53c-.065 0-.089.019-.106.037-.018.018-.037.043-.037.108 0 .502.117.958.347 1.357.232.4.55.723.946.957.395.234.85.352 1.354.352.495 0 .947-.118 1.34-.352a2.622 2.622 0 001.294-2.314V38.57c0-.065-.019-.09-.037-.108-.017-.018-.041-.037-.106-.037s-.089.02-.107.037c-.017.018-.036.043-.036.108v6.697c0 .45-.104.861-.309 1.225a2.385 2.385 0 01-.84.873c-.357.219-.76.33-1.2.33a2.29 2.29 0 01-1.196-.322 2.367 2.367 0 01-.848-.873 2.462 2.462 0 01-.315-1.233c0-.065-.02-.09-.037-.108-.018-.018-.042-.037-.107-.037zm9.824 3.041a.482.482 0 01-.499-.504V38.57a.482.482 0 01.498-.504h2.555c.63 0 1.188.14 1.674.42.485.28.864.666 1.137 1.157.272.491.409 1.06.409 1.707 0 .629-.137 1.187-.41 1.674-.272.487-.65.87-1.136 1.15-.486.28-1.043.42-1.674.42h-2.056v3.065a.482.482 0 01-.498.504zm.498-4.538h2.056c.435 0 .822-.097 1.163-.29a2.07 2.07 0 00.798-.809 2.38 2.38 0 00.288-1.176c0-.457-.096-.858-.288-1.203a2.116 2.116 0 00-.798-.814 2.268 2.268 0 00-1.163-.297h-2.056v4.589z" fill="#fff"/><path d="M20.816 48.522a.834.834 0 01-.61-.248.854.854 0 01-.244-.615V38.57c0-.24.085-.454.245-.616a.836.836 0 01.609-.247h2.554c.69 0 1.312.157 1.85.467.54.311.966.747 1.27 1.294.302.543.454 1.176.454 1.882 0 .689-.153 1.312-.455 1.851a3.36 3.36 0 01-1.27 1.286c-.537.31-1.159.467-1.849.467h-1.7v2.705c0 .24-.085.454-.245.616a.836.836 0 01-.608.247zm0-10.097c-.065 0-.09.02-.107.037-.018.018-.037.043-.037.108v9.089c0 .065.019.09.036.107.019.019.043.038.108.038.064 0 .089-.02.106-.038.018-.018.037-.042.037-.108v-3.423h2.411c.565 0 1.07-.126 1.498-.373.433-.25.76-.582 1.004-1.016.24-.43.363-.934.363-1.497 0-.58-.123-1.096-.364-1.531a2.609 2.609 0 00-1.003-1.02c-.43-.248-.933-.374-1.498-.374h-2.554v.001zm2.554 5.56h-2.41v-5.309h2.411c.495 0 .946.116 1.34.346.395.23.708.55.93.95.221.397.333.86.333 1.378 0 .5-.112.955-.333 1.352a2.43 2.43 0 01-.933.945 2.662 2.662 0 01-1.337.337zm-1.701-.72h1.701c.377 0 .7-.08.989-.244.286-.162.502-.382.663-.67.16-.29.242-.626.242-1.001 0-.392-.081-.738-.242-1.026a1.751 1.751 0 00-.666-.68 1.908 1.908 0 00-.985-.25h-1.702v3.872zm12.227 5.027c-.69 0-1.335-.133-1.935-.4a4.94 4.94 0 01-1.584-1.119 5.261 5.261 0 01-1.45-3.665c0-.706.126-1.372.377-1.997a5.099 5.099 0 012.644-2.767 4.68 4.68 0 011.948-.407c.613 0 1.171.09 1.674.272.502.18.988.47 1.456.866.077.06.121.131.134.213a.398.398 0 01-.032.233.332.332 0 01-.153.161.23.23 0 01-.128.155.424.424 0 01-.236.04.484.484 0 01-.262-.117 3.376 3.376 0 00-1.086-.653c-.392-.142-.847-.213-1.367-.213a3.63 3.63 0 00-1.552.336c-.48.224-.905.53-1.27.918a4.34 4.34 0 00-.863 1.344 4.217 4.217 0 00-.313 1.616c0 .586.104 1.134.313 1.642.209.509.496.957.862 1.345s.79.691 1.271.911c.481.22.999.33 1.552.33.469 0 .911-.078 1.329-.233.417-.155.813-.38 1.188-.672a.4.4 0 01.326-.104.522.522 0 01.3.156.458.458 0 01.127.336.64.64 0 01-.025.188.437.437 0 01-.115.174c-.434.405-.92.692-1.456.86a5.586 5.586 0 01-1.674.252zm3.27-1.474l-.97-.206v-2.6h-1.993a.507.507 0 01-.358-.128.42.42 0 01-.14-.324.4.4 0 01.14-.316.524.524 0 01.358-.123h2.465a.473.473 0 01.498.491v3.206z" fill="#fff"/><path d="M33.896 48.652a5.075 5.075 0 01-2.078-.432 5.321 5.321 0 01-1.697-1.198 5.641 5.641 0 01-1.138-1.766 5.645 5.645 0 01-.41-2.148c0-.75.135-1.467.403-2.133a5.475 5.475 0 012.828-2.959 5.042 5.042 0 012.093-.438c.65 0 1.254.098 1.792.292.54.195 1.066.507 1.565.929.138.109.23.261.257.433a.755.755 0 01-.061.44.702.702 0 01-.192.25.6.6 0 01-.252.236.753.753 0 01-.429.075.834.834 0 01-.45-.193 3.064 3.064 0 00-.983-.595c-.352-.128-.771-.193-1.247-.193a3.3 3.3 0 00-1.404.303 3.8 3.8 0 00-1.163.84 4 4 0 00-.79 1.235 3.87 3.87 0 00-.287 1.478 3.936 3.936 0 001.077 2.738 3.7 3.7 0 001.16.832 3.518 3.518 0 003.351-.28v-2.026h-1.638a.862.862 0 01-.597-.223.78.78 0 01-.256-.589.76.76 0 01.263-.589.87.87 0 01.59-.21h2.466c.235 0 .443.081.602.235a.834.834 0 01.251.616v3.206a.794.794 0 01-.245.616 4.146 4.146 0 01-1.602.949 5.932 5.932 0 01-1.779.269zm0-10.356a4.35 4.35 0 00-1.803.376 4.747 4.747 0 00-2.46 2.574 4.968 4.968 0 00-.351 1.862c0 .665.12 1.295.356 1.873.238.58.572 1.1.994 1.543a4.63 4.63 0 001.472 1.039c1.02.454 2.27.476 3.361.134.414-.13.8-.341 1.149-.63l-.365-.077-.408.284v-.052a4.142 4.142 0 01-1.944.473 4.058 4.058 0 01-1.698-.362 4.41 4.41 0 01-1.382-.99 4.661 4.661 0 01-1.273-3.235c0-.614.114-1.204.34-1.754a4.718 4.718 0 01.933-1.455c.395-.419.86-.754 1.38-.996a3.996 3.996 0 011.7-.37c.557 0 1.058.08 1.486.235.432.157.835.4 1.2.72a.138.138 0 00.06.03h.007l.021-.085.147-.073c-.453-.378-.907-.648-1.367-.814a4.598 4.598 0 00-1.555-.25zm.307 5.184c-.085 0-.115.026-.126.036-.012.01-.017.015-.017.045s.005.04.024.057c.012.011.039.036.119.036h2.347v2.322a.722.722 0 01.262 0v-2.364c0-.066-.02-.084-.031-.095-.02-.02-.047-.037-.113-.037h-2.465z" fill="#fff"/></svg>