<svg width="55" height="65" fill="none" xmlns="http://www.w3.org/2000/svg"><path d="M41.161 15.442c-.98 0-1.774-.804-1.774-1.796V0H10.645c-1.96 0-3.548 1.608-3.548 3.591V61.41c0 1.983 1.588 3.591 3.548 3.591h40.806C53.412 65 55 63.392 55 61.409V28.695L41.904 15.442h-.743z" fill="#E1E5E8"/><path d="M55 15.639l-.194-.197H41.904L55 28.696V15.639z" fill="#CAD1D9"/><path d="M45.903 6.432L39.547 0h-.16v13.646c0 .992.794 1.796 1.774 1.796h13.644l-8.902-9.01z" fill="#B0B7BD"/><path d="M48.258 54.945c0 .991-.794 1.795-1.774 1.795H8.87c-.98 0-1.774-.804-1.774-1.795v-3.591c0-.992.794-1.796 1.774-1.796h37.613c.98 0 1.774.804 1.774 1.796v3.59z" fill="#CAD1D9"/><path d="M48.258 53.508c0 .992-.794 1.796-1.774 1.796H1.774C.794 55.304 0 54.5 0 53.508v-20.47c0-.99.794-1.795 1.774-1.795h44.71c.98 0 1.774.804 1.774 1.796v20.47z" fill="#107B41"/><path d="M10.96 48.163a.442.442 0 01-.338-.13.504.504 0 01-.134-.322.527.527 0 01.115-.362l3.334-4.603.46-.375 2.989-4.124a.46.46 0 01.383-.18c.137 0 .245.044.326.135.08.09.126.198.134.323a.49.49 0 01-.09.33l-3.142 4.318-.434.362-3.245 4.473a.463.463 0 01-.357.155zm6.912 0a.502.502 0 01-.384-.181l-3.18-4.46-.396-.298-3.105-4.37a.502.502 0 01-.102-.342.494.494 0 01.134-.317.428.428 0 01.326-.13c.162 0 .29.061.383.182l3.002 4.202.358.245 3.321 4.654a.54.54 0 01.109.35.503.503 0 01-.128.33.432.432 0 01-.338.135z" fill="#fff"/><path d="M17.872 48.522a.854.854 0 01-.653-.306l-2.782-3.9-2.857 3.935a.815.815 0 01-.62.27.785.785 0 01-.595-.24.89.89 0 01-.043-1.151l2.992-4.131-2.794-3.935a.86.86 0 01-.168-.577.861.861 0 01.23-.539.778.778 0 01.584-.24c.27 0 .5.109.662.317l2.621 3.668 2.652-3.658a.815.815 0 01.669-.328c.237 0 .44.088.589.254.135.151.21.333.225.54a.856.856 0 01-.157.565L15.564 43l2.953 4.139a.9.9 0 01.176.57.87.87 0 01-.219.56.782.782 0 01-.602.253zm-2.981-4.796l2.885 4.046a.517.517 0 00.033.017c.057.025.116.022.138-.003.018-.02.034-.045.036-.1a.18.18 0 00-.037-.121l-2.857-4.003-.198.164zm-1.112-.154l-2.89 3.989c-.045.06-.049.097-.047.126.004.056.021.082.037.099.016.017.066.018.082.018.044 0 .066-.01.086-.029l2.937-4.05-.205-.153zm.42-.579l.24.18.234-.195-.016-.022-.223-.154-.235.191zm-.444-.603l.02.027.199-.162-2.713-3.797c-.01-.014-.03-.033-.096-.033-.052 0-.064.013-.068.018a.136.136 0 00-.038.094.142.142 0 00.032.103l2.664 3.75zm1.159-.125l.202.138 2.738-3.761c.012-.018.024-.042.021-.092a.164.164 0 00-.043-.107c-.006-.007-.016-.018-.063-.018-.065 0-.085.02-.104.045l-2.751 3.795zm7.058 5.898a.487.487 0 01-.352-.142.482.482 0 01-.147-.362V38.57a.49.49 0 01.147-.355.477.477 0 01.352-.15.47.47 0 01.35.15.49.49 0 01.148.355v8.636h4.995a.5.5 0 01.35.136c.098.09.148.205.148.343a.45.45 0 01-.147.342.5.5 0 01-.351.136h-5.493z" fill="#fff"/><path d="M27.465 48.522h-5.493a.84.84 0 01-.598-.242.842.842 0 01-.255-.621V38.57a.852.852 0 111.706 0v8.277h4.64c.223 0 .427.08.59.23.172.159.263.369.263.608s-.09.449-.263.607a.856.856 0 01-.59.23zm-5.493-10.097a.127.127 0 00-.1.044.128.128 0 00-.044.101v9.089c0 .06.019.084.037.102a.135.135 0 00.106.043h5.494a.15.15 0 00.112-.042c.02-.02.03-.037.03-.078 0-.04-.01-.057-.03-.077a.148.148 0 00-.112-.042h-5.35V38.57a.129.129 0 00-.043-.102.126.126 0 00-.1-.043zm11.931 9.867c-.545 0-1.05-.08-1.514-.239a3.636 3.636 0 01-1.207-.679c-.34-.293-.6-.633-.779-1.021-.068-.138-.07-.265-.006-.382a.506.506 0 01.325-.239.459.459 0 01.352.039c.115.06.202.15.262.271.127.25.315.474.562.672.247.2.54.352.881.46.34.107.715.161 1.124.161.451 0 .852-.075 1.201-.226.35-.151.624-.37.824-.66.2-.289.3-.64.3-1.053 0-.526-.192-.979-.575-1.358-.383-.38-.983-.62-1.8-.724-.997-.12-1.776-.433-2.339-.937-.562-.505-.843-1.123-.843-1.855 0-.526.139-.983.416-1.37a2.679 2.679 0 011.143-.9c.485-.21 1.043-.316 1.673-.316a3.46 3.46 0 012.28.82c.286.246.518.516.697.809a.523.523 0 01.083.4.449.449 0 01-.224.298.51.51 0 01-.39.026.518.518 0 01-.3-.246 2.917 2.917 0 00-.479-.562 2.125 2.125 0 00-.696-.42c-.273-.104-.6-.16-.984-.168-.672 0-1.213.144-1.622.433-.409.288-.613.709-.613 1.26 0 .293.077.563.23.808.153.246.406.457.76.634.353.176.828.308 1.424.394 1.065.155 1.855.485 2.37.989.515.504.773 1.161.773 1.971 0 .466-.083.88-.25 1.242a2.5 2.5 0 01-.702.911 3.208 3.208 0 01-1.06.563c-.405.13-.837.194-1.297.194z" fill="#fff"/><path d="M33.903 48.652c-.58 0-1.128-.087-1.627-.259a4.015 4.015 0 01-1.324-.745 3.358 3.358 0 01-.87-1.143.75.75 0 01.005-.708.857.857 0 01.54-.41.814.814 0 01.61.065c.183.096.322.24.416.43.102.2.258.386.465.552.211.17.47.303.767.397a3.36 3.36 0 001.018.146c.401 0 .758-.067 1.061-.198.29-.125.51-.3.673-.535.159-.229.236-.507.236-.847 0-.43-.153-.79-.468-1.101-.325-.322-.862-.531-1.597-.625-1.063-.128-1.914-.473-2.529-1.025-.638-.573-.962-1.287-.962-2.124 0-.6.162-1.132.482-1.58a3.04 3.04 0 011.29-1.018c.53-.23 1.14-.346 1.815-.346.51 0 .982.084 1.405.25a3.83 3.83 0 011.873 1.55.874.874 0 01.126.67.806.806 0 01-.393.528.841.841 0 01-.674.056.877.877 0 01-.5-.41 2.59 2.59 0 00-.41-.474 1.79 1.79 0 00-.581-.35 2.65 2.65 0 00-.867-.145c-.587 0-1.065.124-1.412.369-.314.222-.46.529-.46.965 0 .226.056.428.174.616s.325.358.617.504c.318.159.762.28 1.318.36 1.135.166 1.998.531 2.566 1.087.584.572.88 1.322.88 2.23 0 .515-.094.984-.281 1.392-.189.41-.459.76-.803 1.04-.334.272-.73.482-1.175.624-.439.14-.91.212-1.404.212zm-3.052-2.58c-.12.03-.139.063-.145.074-.001.002-.001.016.014.046.16.348.392.65.691.908a3.33 3.33 0 001.092.613c.426.146.897.22 1.4.22.42 0 .82-.06 1.19-.177.36-.116.678-.284.944-.5.258-.21.461-.474.603-.783.143-.313.216-.68.216-1.09 0-.716-.217-1.276-.665-1.713-.458-.449-1.19-.748-2.173-.892-.639-.092-1.14-.233-1.531-.428-.41-.205-.715-.462-.903-.763a1.858 1.858 0 01-.285-1c0-.673.258-1.196.765-1.555.468-.33 1.082-.498 1.826-.498.43.01.8.074 1.108.19.314.12.586.285.811.492.213.197.394.41.537.632.035.06.064.084.112.1a.16.16 0 00.13-.01c.016-.01.023-.03.029-.053.002-.012.01-.048-.039-.129a3.079 3.079 0 00-1.526-1.258 3.13 3.13 0 00-1.149-.202c-.578 0-1.094.097-1.533.288a2.343 2.343 0 00-.996.779c-.234.328-.348.707-.348 1.16 0 .63.237 1.15.724 1.586.504.452 1.226.738 2.144.85.895.113 1.569.39 2.007.823.452.448.682.99.682 1.615 0 .486-.123.91-.365 1.26a2.242 2.242 0 01-.975.783c-.391.17-.842.255-1.34.255a4.09 4.09 0 01-1.23-.178 3.039 3.039 0 01-.996-.52 2.436 2.436 0 01-.657-.79.245.245 0 00-.11-.117c-.032-.017-.052-.017-.059-.017z" fill="#fff"/></svg>