<svg width="18" height="18" fill="none" xmlns="http://www.w3.org/2000/svg"><path d="M15.199 15.601c-2.787 1.015-6.489.072-9.466-2.597C2.324 9.95 1.123 5.607 2.659 2.658l1.317-1.24a1.49 1.49 0 012.093.026l1.653 1.681c.571.58.559 1.509-.027 2.074L5.37 7.442l-.005-.006a13.718 13.718 0 001.979 2.68c.982 1.044 2.102 2.045 3.194 2.664l2.216-2.267a1.49 1.49 0 012.094-.033l1.701 1.633c.588.563.603 1.492.034 2.074L15.199 15.6z" stroke="#fff" stroke-width="2" stroke-miterlimit="10" stroke-linejoin="round"/></svg>