<svg width="28" height="28" fill="none" xmlns="http://www.w3.org/2000/svg"><path d="M23.998 25.335c-4.644 1.692-10.815.12-15.777-4.328C2.541 15.914.537 8.68 3.098 3.762l2.195-2.069a2.485 2.485 0 013.49.045l2.754 2.802c.951.967.93 2.514-.045 3.456l-3.876 3.74-.007-.01a22.868 22.868 0 003.297 4.467c1.637 1.74 3.504 3.409 5.324 4.44l3.694-3.777a2.485 2.485 0 013.49-.056l2.835 2.721a2.428 2.428 0 01.056 3.456l-2.307 2.358z" stroke="#fff" stroke-width="2" stroke-miterlimit="10" stroke-linejoin="round"/></svg>